<svg width="256" height="116" viewBox="0 0 256 116" fill="none" xmlns="http://www.w3.org/2000/svg">
<g id="Logo">
<path id="logo-name" d="M139.858 79.4593H131.682C132.152 80.133 132.54 80.8679 132.846 81.6641C133.152 82.4807 133.305 83.2156 133.305 83.8689C133.305 85.7675 132.785 87.4823 131.744 89.0134C130.702 90.5649 129.294 91.8817 127.518 92.9636C125.742 94.0456 123.67 94.8826 121.301 95.4746C118.954 96.0667 116.453 96.3627 113.799 96.3627H105.96C104.286 96.3627 102.683 96.1687 101.152 95.7809C99.6211 95.393 98.1819 94.8316 96.8345 94.0967C95.4871 93.3821 94.252 92.5043 93.1292 91.4632C92.0064 90.4424 91.0163 89.2788 90.1589 87.9722C88.1378 84.7059 87.1273 80.8782 87.1273 76.489C87.1273 75.1416 87.1988 73.8045 87.3417 72.4775C87.505 71.1506 87.7602 69.793 88.1072 68.4048C88.4747 66.9962 88.9442 65.5365 89.5158 64.0258C90.1079 62.4947 90.8326 60.8411 91.69 59.0651L98.4881 62.3416C97.7736 63.8523 97.1815 65.2303 96.712 66.4756C96.2425 67.7209 95.8546 68.9049 95.5484 70.0278C95.2626 71.1301 95.0584 72.2019 94.9359 73.2431C94.8134 74.2638 94.7522 75.2947 94.7522 76.3359C94.7522 79.296 95.4055 81.807 96.712 83.8689C97.6511 85.4204 98.927 86.6045 100.54 87.4211C102.173 88.2581 103.98 88.6766 105.96 88.6766H113.799C115.33 88.6766 116.78 88.5337 118.147 88.2478C119.515 87.962 120.72 87.564 121.761 87.0536C122.802 86.5432 123.649 85.9512 124.302 85.2775C124.956 84.6242 125.333 83.9097 125.435 83.134C124.843 82.5011 124.088 81.9601 123.169 81.511C122.271 81.0823 121.24 80.7148 120.077 80.4086C118.933 80.1228 117.688 79.8982 116.341 79.7349C115.014 79.592 113.626 79.49 112.176 79.4287L112.39 71.8344H139.858V79.4593ZM138.605 71.8344H142.555C143.759 71.8344 144.729 71.7324 145.464 71.5282C146.219 71.3241 146.801 71.0281 147.209 70.6402C147.638 70.2319 147.924 69.7419 148.067 69.1703C148.21 68.5987 148.281 67.9455 148.281 67.2105V58.2995H155.906V67.0574C155.906 68.711 156.304 69.9155 157.1 70.6708C157.896 71.4262 159.152 71.814 160.867 71.8344C161.173 71.814 161.54 71.7528 161.969 71.6507C162.418 71.5486 162.847 71.3445 163.255 71.0383C163.684 70.7116 164.041 70.2523 164.327 69.6603C164.633 69.0478 164.786 68.2313 164.786 67.2105V58.2995H172.381V67.0574C172.381 68.7314 172.779 69.9461 173.575 70.7014C174.371 71.4568 175.667 71.8344 177.464 71.8344C177.954 71.8344 178.434 71.763 178.903 71.6201C179.393 71.4568 179.832 71.2016 180.22 70.8545C180.608 70.4871 180.924 70.0175 181.169 69.4459C181.414 68.8743 181.557 68.17 181.598 67.333V58.2995H189.223V67.3636C189.264 68.9356 189.743 70.0788 190.662 70.7933C191.581 71.4874 192.989 71.8344 194.888 71.8344H197.889V79.4593H194.888C192.785 79.4593 190.958 79.2348 189.407 78.7856C187.855 78.3161 186.518 77.5608 185.395 76.5196C184.354 77.4791 183.129 78.214 181.72 78.7244C180.332 79.2144 178.913 79.4593 177.464 79.4593C175.545 79.4593 173.861 79.2246 172.411 78.755C170.982 78.2855 169.706 77.5301 168.584 76.489C167.522 77.4281 166.328 78.1528 165.001 78.6632C163.694 79.1735 162.367 79.4389 161.02 79.4593H160.806C158.968 79.4593 157.335 79.2144 155.906 78.7244C154.477 78.214 153.232 77.5097 152.17 76.6115C149.782 78.51 146.577 79.4593 142.555 79.4593H138.605V71.8344ZM229.585 71.8344V79.4593H225.053C223.317 79.4593 221.735 79.2246 220.306 78.755C218.877 78.2855 217.673 77.5914 216.693 76.6727C215.55 77.6322 214.192 78.3365 212.62 78.7856C211.069 79.2348 209.293 79.4593 207.292 79.4593H196.697V71.8344H207.292C208.537 71.8344 209.527 71.7222 210.262 71.4976C211.018 71.2526 211.579 70.9566 211.946 70.6096C212.334 70.2625 212.579 69.8746 212.681 69.4459C212.804 69.0172 212.865 68.5987 212.865 68.1904V58.2689H220.459V67.9761C220.459 68.8947 220.664 69.6195 221.072 70.1502C221.48 70.6606 221.939 71.0485 222.45 71.3139C222.981 71.5589 223.501 71.712 224.012 71.7732C224.522 71.814 224.869 71.8344 225.053 71.8344H229.585ZM200.678 89.3809L205.883 84.1751L211.089 89.4421L205.883 94.6478L200.678 89.3809ZM213.447 89.4421L218.714 84.2364L223.92 89.5033L218.714 94.7091L213.447 89.4421ZM207.353 98.0163L212.191 93.178L217.091 98.0775L212.253 102.916L207.353 98.0163ZM251.094 53.7368C251.134 53.8797 251.216 54.2166 251.339 54.7474C251.481 55.2781 251.635 55.9314 251.798 56.7072C251.961 57.4625 252.125 58.3097 252.288 59.2488C252.472 60.1879 252.635 61.1372 252.778 62.0967C252.941 63.0357 253.064 63.9544 253.145 64.8526C253.247 65.7509 253.298 66.5368 253.298 67.2105C253.298 69.3132 252.951 71.1404 252.257 72.6919C251.563 74.223 250.655 75.4887 249.532 76.489C248.409 77.4893 247.143 78.2344 245.735 78.7244C244.347 79.2144 242.948 79.4593 241.54 79.4593H228.341V71.8344H241.754C241.999 71.8344 242.346 71.8038 242.795 71.7426C243.265 71.6609 243.724 71.467 244.173 71.1608C244.643 70.8545 245.051 70.3952 245.398 69.7828C245.745 69.1499 245.918 68.2925 245.918 67.2105C245.918 66.7614 245.878 66.2204 245.796 65.5876C245.735 64.9343 245.643 64.2402 245.52 63.5053C245.398 62.7703 245.255 62.0252 245.092 61.2699C244.949 60.4941 244.806 59.7694 244.663 59.0957C244.52 58.4016 244.377 57.7789 244.234 57.2278C244.091 56.6561 243.979 56.2172 243.897 55.911L251.094 53.7368ZM248.215 47.7655L243.071 42.5598L248.154 37.2928L253.421 42.5598L248.215 47.7655ZM235.384 47.7962L230.24 42.5904L235.293 37.3234L240.56 42.5904L235.384 47.7962Z" fill="black"/>
<g id="logo-bars">
<rect id="logo-bar2" y="63.884" width="67.3684" height="13.4493" fill="#FF5722"/>
<rect id="logo-bar1" x="16.842" y="36.9855" width="50.5263" height="13.4493" fill="#FF5722"/>
</g>
</g>
</svg>
