<svg width="0" height="0" class="hidden">
  <symbol fill="none" xmlns="http://www.w3.org/2000/svg" viewBox="0 0 32 32" id="arrow_down">
    <path d="M16 26.6666L15.0572 27.6094L16 28.5522L16.9428 27.6094L16 26.6666ZM17.3333 6.66663C17.3333 5.93025 16.7364 5.33329 16 5.33329C15.2636 5.33329 14.6667 5.93025 14.6667 6.66663L17.3333 6.66663ZM7.05719 19.6094L15.0572 27.6094L16.9428 25.7238L8.94281 17.7238L7.05719 19.6094ZM16.9428 27.6094L24.9428 19.6094L23.0572 17.7238L15.0572 25.7238L16.9428 27.6094ZM17.3333 26.6666L17.3333 6.66663L14.6667 6.66663L14.6667 26.6666L17.3333 26.6666Z" fill="currentColor"></path>
  </symbol>
  <symbol fill="none" xmlns="http://www.w3.org/2000/svg" viewBox="0 0 32 32" id="arrow_left">
    <path d="M12 16L11.0572 15.0572L10.1144 16L11.0572 16.9428L12 16ZM19.0572 7.05719L11.0572 15.0572L12.9428 16.9428L20.9428 8.94281L19.0572 7.05719ZM11.0572 16.9428L19.0572 24.9428L20.9428 23.0572L12.9428 15.0572L11.0572 16.9428Z" fill="currentColor"></path>
  </symbol>
  <symbol fill="none" xmlns="http://www.w3.org/2000/svg" viewBox="0 0 32 32" id="car">
    <path d="M26.6662 15.6668H5.33283C5.02616 15.6668 4.74616 15.5334 4.55949 15.2934C4.37283 15.0668 4.29283 14.7468 4.35949 14.4534L5.86616 7.25344C6.35949 4.9201 7.35949 2.77344 11.3195 2.77344H20.6928C24.6528 2.77344 25.6528 4.93344 26.1462 7.25344L27.6528 14.4668C27.7195 14.7601 27.6395 15.0668 27.4528 15.3068C27.2528 15.5334 26.9728 15.6668 26.6662 15.6668ZM6.55949 13.6668H25.4262L24.1728 7.66677C23.7995 5.9201 23.3595 4.77344 20.6795 4.77344H11.3195C8.63949 4.77344 8.19949 5.9201 7.82616 7.66677L6.55949 13.6668Z" fill="currentColor"></path>
    <path d="M26.6128 30.3333H24.1061C21.9461 30.3333 21.5328 29.0933 21.2661 28.28L20.9995 27.48C20.6528 26.4666 20.6128 26.3333 19.4128 26.3333H12.5861C11.3861 26.3333 11.3061 26.56 10.9995 27.48L10.7328 28.28C10.4528 29.1066 10.0528 30.3333 7.8928 30.3333H5.38613C4.3328 30.3333 3.31946 29.8933 2.6128 29.12C1.91946 28.36 1.58613 27.3466 1.67946 26.3333L2.42613 18.2133C2.62613 16.0133 3.2128 13.6666 7.4928 13.6666H24.5061C28.7861 13.6666 29.3595 16.0133 29.5728 18.2133L30.3195 26.3333C30.4128 27.3466 30.0795 28.36 29.3861 29.12C28.6795 29.8933 27.6661 30.3333 26.6128 30.3333ZM12.5861 24.3333H19.4128C21.8395 24.3333 22.4128 25.4133 22.8928 26.8266L23.1728 27.6533C23.3995 28.3333 23.3995 28.3466 24.1195 28.3466H26.6261C27.1195 28.3466 27.5861 28.1466 27.9195 27.7866C28.2395 27.44 28.3861 27 28.3461 26.5333L27.5995 18.4133C27.4261 16.6133 27.2128 15.68 24.5328 15.68H7.4928C4.79946 15.68 4.58613 16.6133 4.42613 18.4133L3.67946 26.5333C3.63946 27 3.78613 27.44 4.10613 27.7866C4.42613 28.1466 4.90613 28.3466 5.39946 28.3466H7.90613C8.62613 28.3466 8.62613 28.3333 8.8528 27.6666L9.11946 26.8533C9.4528 25.7866 9.94613 24.3333 12.5861 24.3333Z" fill="currentColor"></path>
    <path d="M5.33281 11.6666H3.99948C3.45281 11.6666 2.99948 11.2133 2.99948 10.6666C2.99948 10.12 3.45281 9.66663 3.99948 9.66663H5.33281C5.87948 9.66663 6.33281 10.12 6.33281 10.6666C6.33281 11.2133 5.87948 11.6666 5.33281 11.6666Z" fill="currentColor"></path>
    <path d="M27.9995 11.6666H26.6661C26.1195 11.6666 25.6661 11.2133 25.6661 10.6666C25.6661 10.12 26.1195 9.66663 26.6661 9.66663H27.9995C28.5461 9.66663 28.9995 10.12 28.9995 10.6666C28.9995 11.2133 28.5461 11.6666 27.9995 11.6666Z" fill="currentColor"></path>
    <path d="M15.9995 7.66667C15.4528 7.66667 14.9995 7.21333 14.9995 6.66667V4C14.9995 3.45333 15.4528 3 15.9995 3C16.5461 3 16.9995 3.45333 16.9995 4V6.66667C16.9995 7.21333 16.5461 7.66667 15.9995 7.66667Z" fill="currentColor"></path>
    <path d="M17.9995 7.66663H13.9995C13.4528 7.66663 12.9995 7.21329 12.9995 6.66663C12.9995 6.11996 13.4528 5.66663 13.9995 5.66663H17.9995C18.5461 5.66663 18.9995 6.11996 18.9995 6.66663C18.9995 7.21329 18.5461 7.66663 17.9995 7.66663Z" fill="currentColor"></path>
    <path d="M11.9995 21H7.99948C7.45281 21 6.99948 20.5467 6.99948 20C6.99948 19.4533 7.45281 19 7.99948 19H11.9995C12.5461 19 12.9995 19.4533 12.9995 20C12.9995 20.5467 12.5461 21 11.9995 21Z" fill="currentColor"></path>
    <path d="M23.9995 21H19.9995C19.4528 21 18.9995 20.5467 18.9995 20C18.9995 19.4533 19.4528 19 19.9995 19H23.9995C24.5461 19 24.9995 19.4533 24.9995 20C24.9995 20.5467 24.5461 21 23.9995 21Z" fill="currentColor"></path>
  </symbol>
  <symbol fill="none" xmlns="http://www.w3.org/2000/svg" viewBox="0 0 32 32" id="facebook">
    <path d="M32 16C32 7.16344 24.8366 0 16 0C7.16344 0 0 7.16344 0 16C0 23.9859 5.85094 30.6053 13.5 31.8056V20.625H9.4375V16H13.5V12.475C13.5 8.465 15.8888 6.25 19.5434 6.25C21.2934 6.25 23.125 6.5625 23.125 6.5625V10.5H21.1075C19.12 10.5 18.5 11.7334 18.5 13V16H22.9375L22.2281 20.625H18.5V31.8056C26.1491 30.6053 32 23.9859 32 16Z" fill="currentColor"></path>
  </symbol>
  <symbol fill="none" xmlns="http://www.w3.org/2000/svg" viewBox="0 0 32 32" id="instagram">
    <path d="M16 2.88125C20.275 2.88125 20.7812 2.9 22.4625 2.975C24.025 3.04375 24.8687 3.30625 25.4312 3.525C26.175 3.8125 26.7125 4.1625 27.2687 4.71875C27.8312 5.28125 28.175 5.8125 28.4625 6.55625C28.6812 7.11875 28.9438 7.96875 29.0125 9.525C29.0875 11.2125 29.1063 11.7188 29.1063 15.9875C29.1063 20.2625 29.0875 20.7688 29.0125 22.45C28.9438 24.0125 28.6812 24.8563 28.4625 25.4188C28.175 26.1625 27.825 26.7 27.2687 27.2562C26.7062 27.8187 26.175 28.1625 25.4312 28.45C24.8687 28.6688 24.0187 28.9312 22.4625 29C20.775 29.075 20.2688 29.0937 16 29.0937C11.725 29.0937 11.2188 29.075 9.5375 29C7.975 28.9312 7.13125 28.6688 6.56875 28.45C5.825 28.1625 5.2875 27.8125 4.73125 27.2562C4.16875 26.6937 3.825 26.1625 3.5375 25.4188C3.31875 24.8563 3.05625 24.0063 2.9875 22.45C2.9125 20.7625 2.89375 20.2563 2.89375 15.9875C2.89375 11.7125 2.9125 11.2062 2.9875 9.525C3.05625 7.9625 3.31875 7.11875 3.5375 6.55625C3.825 5.8125 4.175 5.275 4.73125 4.71875C5.29375 4.15625 5.825 3.8125 6.56875 3.525C7.13125 3.30625 7.98125 3.04375 9.5375 2.975C11.2188 2.9 11.725 2.88125 16 2.88125ZM16 0C11.6562 0 11.1125 0.01875 9.40625 0.09375C7.70625 0.16875 6.5375 0.44375 5.525 0.8375C4.46875 1.25 3.575 1.79375 2.6875 2.6875C1.79375 3.575 1.25 4.46875 0.8375 5.51875C0.44375 6.5375 0.16875 7.7 0.09375 9.4C0.01875 11.1125 0 11.6562 0 16C0 20.3437 0.01875 20.8875 0.09375 22.5937C0.16875 24.2937 0.44375 25.4625 0.8375 26.475C1.25 27.5312 1.79375 28.425 2.6875 29.3125C3.575 30.2 4.46875 30.75 5.51875 31.1562C6.5375 31.55 7.7 31.825 9.4 31.9C11.1062 31.975 11.65 31.9937 15.9937 31.9937C20.3375 31.9937 20.8813 31.975 22.5875 31.9C24.2875 31.825 25.4563 31.55 26.4688 31.1562C27.5188 30.75 28.4125 30.2 29.3 29.3125C30.1875 28.425 30.7375 27.5312 31.1437 26.4813C31.5375 25.4625 31.8125 24.3 31.8875 22.6C31.9625 20.8937 31.9813 20.35 31.9813 16.0063C31.9813 11.6625 31.9625 11.1187 31.8875 9.4125C31.8125 7.7125 31.5375 6.54375 31.1437 5.53125C30.75 4.46875 30.2063 3.575 29.3125 2.6875C28.425 1.8 27.5312 1.25 26.4813 0.84375C25.4625 0.45 24.3 0.175 22.6 0.1C20.8875 0.01875 20.3438 0 16 0Z" fill="currentColor"></path>
    <path d="M16 7.78125C11.4625 7.78125 7.78125 11.4625 7.78125 16C7.78125 20.5375 11.4625 24.2187 16 24.2187C20.5375 24.2187 24.2187 20.5375 24.2187 16C24.2187 11.4625 20.5375 7.78125 16 7.78125ZM16 21.3312C13.0562 21.3312 10.6687 18.9437 10.6687 16C10.6687 13.0562 13.0562 10.6687 16 10.6687C18.9437 10.6687 21.3312 13.0562 21.3312 16C21.3312 18.9437 18.9437 21.3312 16 21.3312Z" fill="currentColor"></path>
    <path d="M26.4625 7.45635C26.4625 8.51885 25.6 9.3751 24.5438 9.3751C23.4813 9.3751 22.625 8.5126 22.625 7.45635C22.625 6.39385 23.4875 5.5376 24.5438 5.5376C25.6 5.5376 26.4625 6.4001 26.4625 7.45635Z" fill="currentColor"></path>
  </symbol>
  <symbol fill="none" xmlns="http://www.w3.org/2000/svg" viewBox="0 0 32 32" id="linkedIn">
    <path d="M29.6313 0H2.3625C1.05625 0 0 1.03125 0 2.30625V29.6875C0 30.9625 1.05625 32 2.3625 32H29.6313C30.9375 32 32 30.9625 32 29.6938V2.30625C32 1.03125 30.9375 0 29.6313 0ZM9.49375 27.2687H4.74375V11.9937H9.49375V27.2687ZM7.11875 9.9125C5.59375 9.9125 4.3625 8.68125 4.3625 7.1625C4.3625 5.64375 5.59375 4.4125 7.11875 4.4125C8.6375 4.4125 9.86875 5.64375 9.86875 7.1625C9.86875 8.675 8.6375 9.9125 7.11875 9.9125ZM27.2687 27.2687H22.525V19.8438C22.525 18.075 22.4937 15.7937 20.0562 15.7937C17.5875 15.7937 17.2125 17.725 17.2125 19.7188V27.2687H12.475V11.9937H17.025V14.0813H17.0875C17.7188 12.8813 19.2688 11.6125 21.575 11.6125C26.3813 11.6125 27.2687 14.775 27.2687 18.8875V27.2687Z" fill="currentColor"></path>
  </symbol>
  <symbol fill="none" xmlns="http://www.w3.org/2000/svg" viewBox="0 0 28 10" id="pwa">
    <path d="M4.0039 4.58788C4.38402 4.58788 4.67363 4.5019 4.87274 4.32994C5.08091 4.14893 5.18499 3.87741 5.18499 3.51539C5.18499 3.17147 5.07638 2.90901 4.85917 2.728C4.65101 2.53794 4.34329 2.44291 3.93602 2.44291C3.79121 2.44291 3.66903 2.44743 3.56947 2.45648C3.47897 2.45648 3.38394 2.46554 3.28438 2.48364V4.58788H4.0039ZM3.29796 8.9457C3.1984 8.97285 3.04002 9 2.8228 9.02715C2.61464 9.0543 2.40648 9.06788 2.19832 9.06788C1.99016 9.06788 1.80462 9.04978 1.64171 9.01358C1.48785 8.98642 1.35662 8.93212 1.24802 8.85067C1.13941 8.76921 1.05796 8.65608 1.00365 8.51127C0.94935 8.36646 0.922198 8.1764 0.922198 7.94109V1.54691C0.922198 1.35685 0.971976 1.21204 1.07153 1.11248C1.18014 1.00388 1.32495 0.917899 1.50596 0.854545C1.81367 0.745939 2.16212 0.66901 2.55129 0.623757C2.94951 0.569454 3.34773 0.542303 3.74596 0.542303C4.99493 0.542303 5.94975 0.809293 6.61044 1.34327C7.27113 1.87725 7.60147 2.60129 7.60147 3.51539C7.60147 3.95887 7.52907 4.36162 7.38426 4.72364C7.2485 5.07661 7.04034 5.38432 6.75977 5.64679C6.48826 5.9002 6.13981 6.09931 5.71444 6.24412C5.29812 6.37988 4.81392 6.44776 4.26183 6.44776H3.29796V8.9457ZM12.6117 2.7823C12.7112 2.73705 12.8651 2.68727 13.0732 2.63297C13.2905 2.56962 13.5077 2.53794 13.7249 2.53794C14.105 2.53794 14.4218 2.59677 14.6752 2.71442C14.9286 2.82303 15.0825 2.98594 15.1368 3.20315C15.2363 3.57422 15.3268 3.92267 15.4083 4.24848C15.4988 4.56525 15.5848 4.87297 15.6662 5.17164C15.7477 5.46125 15.8246 5.75087 15.897 6.04048C15.9785 6.3301 16.0554 6.63329 16.1278 6.95006H16.1957C16.2771 6.39798 16.3495 5.87305 16.4129 5.37527C16.4762 4.86844 16.5351 4.37519 16.5894 3.89552C16.6437 3.40679 16.698 2.92711 16.7523 2.45648C16.8066 1.97681 16.8609 1.49261 16.9152 1.00388C17.2501 0.813818 17.6075 0.718788 17.9877 0.718788C18.3225 0.718788 18.6122 0.791192 18.8565 0.936C19.1009 1.08081 19.2231 1.32517 19.2231 1.66909C19.2231 1.8682 19.2004 2.15329 19.1552 2.52436C19.119 2.88638 19.0647 3.29366 18.9923 3.74618C18.9289 4.19871 18.852 4.67386 18.7615 5.17164C18.671 5.66941 18.576 6.14457 18.4764 6.59709C18.3768 7.04962 18.2728 7.46141 18.1642 7.83248C18.0646 8.19451 17.9696 8.47507 17.8791 8.67418C17.7433 8.80089 17.5216 8.90497 17.2138 8.98642C16.9061 9.06788 16.5894 9.10861 16.2635 9.10861C15.8382 9.10861 15.4762 9.0543 15.1775 8.9457C14.8879 8.82804 14.7114 8.66513 14.648 8.45697C14.5304 8.09495 14.4037 7.66505 14.2679 7.16727C14.1322 6.66949 13.9873 6.12194 13.8335 5.52461C13.7068 6.11289 13.5755 6.6876 13.4398 7.24873C13.304 7.80986 13.1818 8.28501 13.0732 8.67418C12.9375 8.80089 12.7338 8.90497 12.4623 8.98642C12.1908 9.06788 11.8922 9.10861 11.5663 9.10861C11.1591 9.10861 10.788 9.0543 10.4531 8.9457C10.1273 8.82804 9.91462 8.66513 9.81506 8.45697C9.73361 8.29406 9.6431 8.05422 9.54355 7.73745C9.45304 7.41164 9.35801 7.04509 9.25846 6.63782C9.1589 6.22149 9.05482 5.77349 8.94621 5.29382C8.84666 4.81414 8.75163 4.33446 8.66112 3.85479C8.57967 3.37511 8.50274 2.90901 8.43033 2.45648C8.35793 1.99491 8.30363 1.57406 8.26742 1.19394C8.39413 1.07628 8.57062 0.967677 8.79688 0.868121C9.02314 0.768566 9.26751 0.718788 9.52997 0.718788C9.87389 0.718788 10.1545 0.795717 10.3717 0.949575C10.5979 1.09438 10.7382 1.34327 10.7925 1.69624C10.9373 2.61939 11.055 3.38869 11.1455 4.00412C11.245 4.61956 11.322 5.12638 11.3763 5.52461C11.4396 5.91378 11.4849 6.21697 11.512 6.43418C11.5392 6.65139 11.5663 6.82335 11.5935 6.95006H11.6614C11.7428 6.58804 11.8197 6.25317 11.8922 5.94545C11.9646 5.63774 12.037 5.33002 12.1094 5.0223C12.1908 4.70554 12.2723 4.37067 12.3537 4.0177C12.4352 3.65568 12.5212 3.24388 12.6117 2.7823ZM22.0826 1.01745C22.2364 0.926949 22.4672 0.840969 22.7749 0.759515C23.0917 0.67806 23.4085 0.637333 23.7252 0.637333C24.1778 0.637333 24.576 0.705212 24.9199 0.84097C25.2729 0.967677 25.4991 1.17131 25.5987 1.45188C25.7616 1.92251 25.9381 2.47006 26.1281 3.09455C26.3182 3.71903 26.5083 4.36614 26.6983 5.03588C26.8884 5.69657 27.0739 6.35273 27.2549 7.00436C27.4359 7.64695 27.5943 8.21713 27.7301 8.71491C27.6215 8.84162 27.4586 8.94117 27.2413 9.01358C27.0241 9.09503 26.7662 9.13576 26.4675 9.13576C26.2503 9.13576 26.0648 9.11766 25.9109 9.08145C25.7661 9.04525 25.6439 8.99095 25.5444 8.91855C25.4539 8.84614 25.3769 8.75111 25.3136 8.63345C25.2593 8.5158 25.2095 8.38004 25.1643 8.22618L24.9199 7.28945H22.4627C22.3903 7.56097 22.3179 7.84154 22.2455 8.13115C22.1731 8.42077 22.1007 8.70133 22.0283 8.97285C21.9016 9.0181 21.7658 9.0543 21.621 9.08145C21.4852 9.11766 21.3178 9.13576 21.1187 9.13576C20.6571 9.13576 20.3132 9.05883 20.0869 8.90497C19.8697 8.74206 19.7611 8.52032 19.7611 8.23976C19.7611 8.11305 19.7792 7.98634 19.8154 7.85964C19.8516 7.73293 19.8923 7.5836 19.9376 7.41164C20.0009 7.16727 20.0869 6.86408 20.1955 6.50206C20.3132 6.14004 20.4399 5.75087 20.5757 5.33455C20.7114 4.90917 20.8562 4.47475 21.0101 4.03127C21.1639 3.5878 21.3087 3.17147 21.4445 2.7823C21.5803 2.38408 21.7024 2.03111 21.811 1.72339C21.9287 1.41568 22.0192 1.18036 22.0826 1.01745ZM23.7117 2.76873C23.5849 3.14885 23.4401 3.57422 23.2772 4.04485C23.1234 4.50642 22.9831 4.97705 22.8564 5.45673H24.5398C24.4131 4.968 24.2818 4.49285 24.1461 4.03127C24.0194 3.56065 23.9017 3.1398 23.7931 2.76873H23.7117Z" fill="currentColor"></path>
  </symbol>
  <symbol fill="none" xmlns="http://www.w3.org/2000/svg" viewBox="0 0 32 32" id="telegram">
    <path fill-rule="evenodd" clip-rule="evenodd" d="M32 16C32 24.8366 24.8366 32 16 32C7.16344 32 0 24.8366 0 16C0 7.16344 7.16344 0 16 0C24.8366 0 32 7.16344 32 16ZM16.5734 11.8118C15.0171 12.4591 11.9068 13.7988 7.24251 15.831C6.4851 16.1322 6.08833 16.4269 6.05221 16.715C5.99117 17.2019 6.60094 17.3936 7.43129 17.6547C7.54423 17.6903 7.66126 17.7271 7.78124 17.7661C8.59817 18.0316 9.69709 18.3423 10.2684 18.3546C10.7866 18.3658 11.365 18.1522 12.0035 17.7137C16.3615 14.7719 18.6112 13.285 18.7524 13.2529C18.852 13.2303 18.9901 13.2019 19.0837 13.285C19.1772 13.3682 19.168 13.5257 19.1581 13.5679C19.0977 13.8254 16.7041 16.0507 15.4655 17.2023C15.0793 17.5613 14.8054 17.8159 14.7494 17.8741C14.624 18.0044 14.4962 18.1276 14.3733 18.246C13.6143 18.9777 13.0452 19.5263 14.4048 20.4223C15.0582 20.8529 15.581 21.2089 16.1026 21.5641C16.6722 21.952 17.2404 22.3389 17.9755 22.8208C18.1628 22.9436 18.3416 23.0711 18.5158 23.1953C19.1788 23.6679 19.7743 24.0925 20.5101 24.0248C20.9376 23.9854 21.3793 23.5834 21.6036 22.3844C22.1336 19.5508 23.1755 13.4112 23.4163 10.8812C23.4374 10.6596 23.4108 10.3759 23.3895 10.2513C23.3682 10.1268 23.3237 9.94939 23.1618 9.81805C22.9701 9.66249 22.6742 9.62969 22.5418 9.63202C21.94 9.64263 21.0167 9.96367 16.5734 11.8118Z" fill="currentColor"></path>
  </symbol>
  <symbol fill="none" xmlns="http://www.w3.org/2000/svg" viewBox="0 0 32 32" id="twitter">
    <path d="M10.0669 29.0001C22.1394 29.0001 28.7444 18.9957 28.7444 10.3226C28.7444 10.0414 28.7381 9.75385 28.7256 9.4726C30.0105 8.5434 31.1193 7.39246 32 6.07385C30.8034 6.60625 29.5329 6.95396 28.2319 7.1051C29.6017 6.284 30.6274 4.99408 31.1187 3.47448C29.8301 4.2382 28.4208 4.77694 26.9512 5.0676C25.9611 4.01554 24.652 3.31894 23.2262 3.08552C21.8005 2.8521 20.3376 3.09486 19.0637 3.77625C17.7897 4.45765 16.7757 5.53973 16.1785 6.8552C15.5812 8.17068 15.4339 9.64627 15.7594 11.0539C13.15 10.9229 10.5972 10.2451 8.26664 9.06425C5.93604 7.88345 3.87959 6.22604 2.23062 4.19948C1.39253 5.64445 1.13608 7.35432 1.51337 8.98158C1.89067 10.6088 2.87342 12.0314 4.26187 12.9601C3.2195 12.927 2.19997 12.6464 1.2875 12.1414V12.2226C1.28657 13.739 1.8108 15.2089 2.77108 16.3825C3.73136 17.5561 5.06843 18.3609 6.555 18.6601C5.58941 18.9243 4.57598 18.9628 3.59312 18.7726C4.01261 20.0767 4.82876 21.2173 5.92769 22.0352C7.02662 22.8532 8.35349 23.3076 9.72312 23.3351C7.3979 25.1616 4.52557 26.1523 1.56875 26.1476C1.04438 26.1468 0.520532 26.1147 0 26.0513C3.00381 27.9784 6.49804 29.002 10.0669 29.0001Z" fill="currentColor"></path>
  </symbol>
</svg>